<svg xmlns="http://www.w3.org/2000/svg" viewBox="4.44 3.25 17.12 17.5" width="17.12" height="17.5">
  <path d="M3439.19189453125,966.816650390625C3439.22509765625,966.5499877929688,3439.25,966.2750244140625,3439.25,966.0C3439.25,965.7249755859375,3439.22509765625,965.4500122070312,3439.18310546875,965.183349609375L3440.94189453125,963.808349609375L3439.27490234375,960.9249877929688L3437.2001953125,961.75830078125C3436.7685546875,961.425048828125,3436.294921875,961.1504516601562,3435.79150390625,960.941650390625L3435.5,958.7083129882812L3432.16650390625,958.7083129882812L3431.85009765625,960.941650390625C3431.341796875,961.1500244140625,3430.875,961.4249877929688,3430.44189453125,961.75830078125L3428.36669921875,960.9249877929688L3426.7001953125,963.808349609375L3428.45849609375,965.183349609375C3428.4248046875,965.4500122070312,3428.3916015625,965.7333374023438,3428.3916015625,966.0C3428.3916015625,966.2666625976562,3428.41650390625,966.5499877929688,3428.45849609375,966.816650390625L3426.7001953125,968.191650390625L3428.36669921875,971.0750122070312L3430.44189453125,970.24169921875C3430.875,970.5750122070312,3431.341796875,970.8499755859375,3431.85009765625,971.058349609375L3432.16650390625,973.2916870117188L3435.5,973.2916870117188L3435.81689453125,971.058349609375C3436.3251953125,970.8499755859375,3436.79150390625,970.5750122070312,3437.22509765625,970.24169921875L3439.2998046875,971.0750122070312L3440.966796875,968.191650390625L3439.19189453125,966.816650390625ZM3433.83349609375,968.9166870117188C3432.107421875,968.9166870117188,3430.70849609375,967.517578125,3430.70849609375,965.7916870117188C3430.70849609375,964.0657958984375,3432.107421875,962.6666870117188,3433.83349609375,962.6666870117188C3435.55908203125,962.6666870117188,3436.95849609375,964.0657958984375,3436.95849609375,965.7916870117188C3436.95849609375,967.517578125,3435.55908203125,968.9166870117188,3433.83349609375,968.9166870117188Z" />
</svg>
