<svg xmlns="http://www.w3.org/2000/svg" viewBox="4 6 16 12" width="16" height="12">
  <path d="M585.0,3829.5L586.5,3829.5L586.5,3831.0L585.0,3831.0L585.0,3829.5ZM588.0,3829.5L597.0,3829.5L597.0,3831.0L588.0,3831.0L588.0,3829.5ZM585.0,3833.25L586.5,3833.25L586.5,3834.75L585.0,3834.75L585.0,3833.25ZM588.0,3833.25L597.0,3833.25L597.0,3834.75L588.0,3834.75L588.0,3833.25ZM585.0,3837.0L586.5,3837.0L586.5,3838.5L585.0,3838.5L585.0,3837.0ZM588.0,3837.0L597.0,3837.0L597.0,3838.5L588.0,3838.5L588.0,3837.0Z" />
</svg>
